<?xml version="1.0" encoding="utf-8"?>
<!-- Generator: Adobe Illustrator 26.2.1, SVG Export Plug-In . SVG Version: 6.00 Build 0)  -->
<svg version="1.1" baseProfile="basic" id="Layer_1"
	 xmlns="http://www.w3.org/2000/svg" xmlns:xlink="http://www.w3.org/1999/xlink" x="0px" y="0px" viewBox="0 0 30 30"
	 xml:space="preserve">
<style type="text/css">
	.st0{fill:#FFFFFF;}
</style>
<g id="XMLID_10235_">
	<path id="XMLID_10244_" class="st0" d="M16.4,4.2c-1,0-1.9,0-2.9,0c-0.1,0-0.3,0-0.4,0c-3.7,0-7.3,0-11,0c-0.2,0-0.4,0.2-0.4,0.5
		c0,5.8,0,11.6,0,17.5c0,0.2,0.2,0.5,0.4,0.5c3.5,0,7,0,10.6,0c0,0.9,0,1.8,0,2.7c0,0.3,0.4,0.6,0.6,0.4c0.3-0.2,0.6-0.5,0.9-0.7
		c0.2-0.2,0.4-0.4,0.7-0.5c0.1,0,0.1-0.1,0.2-0.1c0,0,0.1,0.1,0.1,0.1c0.2,0.2,0.4,0.3,0.6,0.5c0.3,0.3,0.6,0.5,1,0.8
		c0.2,0.1,0.4,0.1,0.5,0c0.1-0.1,0.2-0.2,0.2-0.4c0-0.9,0-1.8,0-2.7c3.5,0,6.9,0,10.4,0c0.1,0,0.2,0,0.3-0.1c0,0,0,0,0,0
		c0,0,0,0,0,0c0.1-0.1,0.1-0.2,0.1-0.3c0-5.8,0-11.6,0-17.5c0-0.3-0.2-0.5-0.4-0.5c-3.6,0-7.2,0-10.8,0C16.8,4.2,16.6,4.2,16.4,4.2z
		 M12.7,21.7c-3.4,0-6.8,0-10.2,0c0-5.5,0-11,0-16.5c3.4,0,6.8,0,10.2,0C12.7,10.7,12.7,16.2,12.7,21.7z M16.6,24.4
		c-0.4-0.4-0.9-0.7-1.3-1.1c-0.1-0.1-0.3-0.1-0.4,0c-0.4,0.4-0.9,0.7-1.3,1.1c0-6.4,0-12.8,0-19.2c0,0,0,0,0,0c1,0,1.9,0,2.9,0
		c0.1,0,0.1,0,0.2,0C16.6,11.6,16.6,18,16.6,24.4z M17.5,5.2c3.3,0,6.7,0,10,0c0,5.5,0,11,0,16.5c-3.3,0-6.7,0-10,0
		C17.5,16.2,17.5,10.7,17.5,5.2z"/>
	<path id="XMLID_10243_" class="st0" d="M4.5,9.5c2,0,4,0,6,0c0.4,0,0.4-0.6,0-0.6c-2,0-4,0-6,0C4.1,8.9,4.1,9.5,4.5,9.5z"/>
	<path id="XMLID_10242_" class="st0" d="M4.5,12.1c2,0,4,0,6,0c0.4,0,0.4-0.6,0-0.6c-2,0-4,0-6,0C4.1,11.5,4.1,12.1,4.5,12.1z"/>
	<path id="XMLID_10241_" class="st0" d="M4.5,14.7c2,0,4,0,6,0c0.4,0,0.4-0.6,0-0.6c-2,0-4,0-6,0C4.1,14.1,4.1,14.7,4.5,14.7z"/>
	<path id="XMLID_10240_" class="st0" d="M4.5,17.3c2,0,4,0,6,0c0.4,0,0.4-0.6,0-0.6c-2,0-4,0-6,0C4.1,16.7,4.1,17.3,4.5,17.3z"/>
	<path id="XMLID_10239_" class="st0" d="M25.6,8.9c-2,0-4,0-6,0c-0.4,0-0.4,0.6,0,0.6c2,0,4,0,6,0C25.9,9.5,25.9,8.9,25.6,8.9z"/>
	<path id="XMLID_10238_" class="st0" d="M25.6,11.5c-2,0-4,0-6,0c-0.4,0-0.4,0.6,0,0.6c2,0,4,0,6,0C25.9,12.1,25.9,11.5,25.6,11.5z"
		/>
	<path id="XMLID_10237_" class="st0" d="M25.6,14.1c-2,0-4,0-6,0c-0.4,0-0.4,0.6,0,0.6c2,0,4,0,6,0C25.9,14.7,25.9,14.1,25.6,14.1z"
		/>
	<path id="XMLID_10236_" class="st0" d="M25.6,16.7c-2,0-4,0-6,0c-0.4,0-0.4,0.6,0,0.6c2,0,4,0,6,0C25.9,17.3,25.9,16.7,25.6,16.7z"
		/>
</g>
</svg>
