<?xml version="1.0" encoding="utf-8"?>
<!-- Generator: Adobe Illustrator 26.2.1, SVG Export Plug-In . SVG Version: 6.00 Build 0)  -->
<svg version="1.1" baseProfile="basic" id="Layer_1"
	 xmlns="http://www.w3.org/2000/svg" xmlns:xlink="http://www.w3.org/1999/xlink" x="0px" y="0px" viewBox="0 0 30 30"
	 xml:space="preserve">
<style type="text/css">
	.st0{fill:#FFFFFF;}
</style>
<g id="XMLID_8978_">
	<path id="XMLID_8984_" class="st0" d="M1.4,21.8C1.5,21.9,1.6,22,1.8,22l7.6,0c-0.1,0.5-0.2,1.1-0.2,1.6c0,0.1,0,0.2,0.1,0.3
		c0.1,0.1,0.2,0.1,0.3,0.1l10.5,0c0.3,0,0.5-0.2,0.5-0.5c0-0.1,0-0.7-0.1-1.7l7.7,0c0.3,0,0.5-0.2,0.5-0.5c0-0.2,0.1-4-2.3-6.2
		c-0.2-0.2-0.4-0.2-0.6,0c0,0-2.8,2.1-5.4,0c-0.2-0.1-0.4-0.1-0.6,0c-0.1,0-0.8,0.7-1.5,2c-0.2-0.1-0.3,0-0.5,0.1
		c-0.1,0.1-2.8,2.1-5.4,0c-0.1-0.1-0.3-0.1-0.4-0.1c-0.3-0.7-0.8-1.4-1.4-2c-0.2-0.2-0.4-0.2-0.6,0c0,0-2.8,2.1-5.4,0
		c-0.2-0.1-0.4-0.1-0.6,0c-0.1,0.1-2.4,2.1-2.5,6.2C1.3,21.6,1.3,21.7,1.4,21.8z M20.1,16.3c2.5,1.7,5,0.5,5.9,0
		c1.4,1.5,1.7,3.8,1.7,4.8l-7.4,0c-0.2-1-0.7-2.1-1.4-3C19.4,17.2,19.8,16.6,20.1,16.3z M12.1,18.4c2.5,1.7,5,0.5,5.9,0
		c1.4,1.5,1.7,3.8,1.7,4.8l-9.5,0C10.4,20.6,11.5,19,12.1,18.4z M4.1,16.3c2.5,1.7,5,0.5,5.9,0c0.5,0.5,0.8,1.1,1.1,1.8
		c-0.5,0.6-1.1,1.6-1.5,3l-7.3,0C2.4,18.5,3.6,16.9,4.1,16.3z"/>
	<path id="XMLID_8979_" class="st0" d="M7,14.9L7,14.9c1.2,0,2.3-0.5,3.2-1.3c0.1-0.1,0.2-0.2,0.3-0.4c0.3,2.2,2.2,3.8,4.4,3.8h0
		c1.2,0,2.3-0.5,3.2-1.3c0.7-0.7,1.1-1.6,1.3-2.6c0.8,1.1,2.1,1.8,3.6,1.8h0c1.2,0,2.3-0.5,3.2-1.3c0.8-0.8,1.3-2,1.3-3.2
		c0-2.5-2-4.5-4.5-4.5c-1.2,0-2.3,0.5-3.2,1.3c-0.7,0.7-1.1,1.6-1.3,2.6C17.7,8.7,16.4,8,15,8c-1.2,0-2.3,0.5-3.2,1.3
		c-0.1,0.1-0.2,0.2-0.3,0.4C11.1,7.6,9.3,5.9,7,5.9c-1.2,0-2.3,0.5-3.2,1.3c-0.8,0.8-1.3,2-1.3,3.2C2.5,12.9,4.5,14.9,7,14.9z
		 M20.5,7.9c0.7-0.7,1.6-1,2.5-1c2,0,3.5,1.6,3.5,3.5c0,0.9-0.4,1.8-1,2.5c-0.7,0.7-1.6,1-2.5,1h0c-2,0-3.5-1.6-3.5-3.5
		C19.4,9.5,19.8,8.6,20.5,7.9z M12.5,10C13.1,9.3,14,9,15,9c2,0,3.5,1.6,3.5,3.5c0,0.9-0.4,1.8-1,2.5c-0.7,0.7-1.6,1-2.5,1h0
		c-2,0-3.5-1.6-3.5-3.5C11.4,11.6,11.8,10.7,12.5,10z M4.5,7.9c0.7-0.7,1.6-1,2.5-1c2,0,3.5,1.6,3.5,3.5c0,0.9-0.4,1.8-1,2.5
		c-0.7,0.7-1.6,1-2.5,1h0c-2,0-3.5-1.6-3.5-3.5C3.5,9.5,3.8,8.6,4.5,7.9z"/>
</g>
</svg>
