<?xml version="1.0" encoding="utf-8"?>
<!-- Generator: Adobe Illustrator 26.2.1, SVG Export Plug-In . SVG Version: 6.00 Build 0)  -->
<svg version="1.1" baseProfile="basic" id="Layer_1"
	 xmlns="http://www.w3.org/2000/svg" xmlns:xlink="http://www.w3.org/1999/xlink" x="0px" y="0px" viewBox="0 0 30 30"
	 xml:space="preserve">
<style type="text/css">
	.st0{fill:#FFFFFF;}
</style>
<g id="XMLID_10249_">
	<path id="XMLID_10256_" class="st0" d="M4.8,13.1c-0.9,0.9-1.4,2.1-1.4,3.4c0,2.7,2.2,4.8,4.8,4.8h0c1.3,0,2.5-0.5,3.4-1.4
		c0.5-0.5,0.9-1.1,1.1-1.7l4.5,0c0.7,1.8,2.5,3.1,4.5,3.1h0c1.3,0,2.5-0.5,3.4-1.4c0.9-0.9,1.4-2.1,1.4-3.4c0-2.7-2.2-4.8-4.8-4.8
		c-0.8,0-1.5,0.2-2.2,0.5c-0.3-0.4-0.6-0.8-1-1.2c-0.2-0.2-0.6-0.2-0.8,0c0,0-2.7,2-5.2,0.2l-1.3-2.1c0.9,1.1,2.2,1.8,3.8,1.8h0
		c1.3,0,2.5-0.5,3.4-1.4c0.9-0.9,1.4-2.1,1.4-3.4c0-2.7-2.2-4.8-4.9-4.8c-1.3,0-2.5,0.5-3.4,1.4C10.5,3.5,10,4.8,10,6
		c0,0.8,0.2,1.5,0.5,2.2L8.9,5.7C8.4,5,7.4,4.7,6.7,5.2c-0.8,0.5-1,1.5-0.5,2.3l2.8,4.3c-0.2,0-0.5-0.1-0.7-0.1
		C6.9,11.7,5.7,12.2,4.8,13.1z M12.4,3.5c0.7-0.7,1.6-1,2.5-1c1.9,0,3.5,1.6,3.5,3.5c0,0.9-0.4,1.8-1,2.5c-0.7,0.7-1.6,1-2.5,1
		c-1.9,0-3.5-1.6-3.5-3.5C11.3,5.1,11.7,4.2,12.4,3.5z M19.3,14.1c0.7-0.7,1.6-1,2.5-1c2,0,3.5,1.6,3.5,3.5c0,0.9-0.4,1.8-1,2.5
		c-0.7,0.7-1.6,1-2.5,1h0c-2,0-3.5-1.6-3.5-3.5C18.2,15.6,18.6,14.7,19.3,14.1z M7.1,6.9C7,6.8,6.9,6.6,7,6.5c0-0.2,0.1-0.3,0.3-0.4
		C7.5,6,7.9,6,8,6.3l3.2,4.9l0,0l0.8,1.3l0.1,0.1c0.2,0.1,0.5,0.3,0.7,0.4c0.2,0.1,0.4,0.2,0.6,0.2c2,0.6,3.9-0.2,4.7-0.7
		c0.2,0.2,0.3,0.4,0.5,0.6c0,0-0.1,0.1-0.1,0.1c-0.9,0.9-1.4,2.1-1.4,3.4c0,0.1,0,0.3,0,0.4H13c0-0.1,0-0.3,0-0.4
		c0-1.8-1-3.4-2.5-4.3l-0.1-0.1L7.1,6.9z M11.8,16.6c0,0.9-0.4,1.8-1,2.5c-0.7,0.7-1.6,1-2.5,1h0c-2,0-3.5-1.6-3.5-3.5
		c0-0.9,0.4-1.8,1-2.5c0.7-0.7,1.6-1,2.5-1C10.2,13,11.8,14.6,11.8,16.6z"/>
	<path id="XMLID_10253_" class="st0" d="M2.3,28.6c0.1,0.1,0.3,0.2,0.5,0.2l11,0c0.4,0,0.6-0.3,0.7-0.6c0-0.2,0.1-4.3-2.5-6.6
		c-0.2-0.2-0.6-0.2-0.8,0c-0.1,0.1-2.9,2.1-5.5,0c-0.2-0.2-0.6-0.2-0.8,0c-0.1,0.1-2.6,2.3-2.6,6.6C2.1,28.3,2.1,28.5,2.3,28.6z
		 M5.2,22.9c2.3,1.5,4.8,0.8,6.1,0c1.3,1.5,1.6,3.6,1.7,4.6l-9.6,0C3.6,25.1,4.7,23.6,5.2,22.9z"/>
	<path id="XMLID_10250_" class="st0" d="M24.6,21.5c-0.1,0.1-2.9,2.1-5.5,0c-0.2-0.2-0.6-0.2-0.8,0c-0.1,0.1-2.6,2.3-2.6,6.6
		c0,0.2,0.1,0.3,0.2,0.5c0.1,0.1,0.3,0.2,0.5,0.2l11,0c0.4,0,0.6-0.3,0.7-0.6c0-0.2,0.1-4.3-2.5-6.6C25.2,21.3,24.9,21.3,24.6,21.5z
		 M26.6,27.5l-9.6,0c0.2-2.4,1.2-3.9,1.8-4.6c2.3,1.5,4.8,0.8,6.1,0C26.2,24.3,26.5,26.5,26.6,27.5z"/>
</g>
</svg>
