<?xml version="1.0" encoding="utf-8"?>
<!-- Generator: Adobe Illustrator 26.5.0, SVG Export Plug-In . SVG Version: 6.00 Build 0)  -->
<svg version="1.1" baseProfile="basic" id="Layer_1"
	 xmlns="http://www.w3.org/2000/svg" xmlns:xlink="http://www.w3.org/1999/xlink" x="0px" y="0px" viewBox="0 0 30 30"
	 xml:space="preserve">
<style type="text/css">
	.st0{fill:none;stroke:#FFFFFF;stroke-width:0.25;stroke-miterlimit:10;}
	.st1{fill:#FFFFFF;}
</style>
<g>
	<circle class="st0" cx="68" cy="33" r="2.1"/>
	<circle class="st1" cx="68.5" cy="33" r="2.1"/>
	<g>
		<path class="st1" d="M75.6,53.5h-9.1c-0.5,0-1-0.4-1.2-0.9l-1.1-2.8c-0.2-0.5,0-0.9,0.5-0.9h9.1c0.5,0,1,0.4,1.2,0.9l1.1,2.8
			C76.3,53.1,76.1,53.5,75.6,53.5z"/>
		<g>
			<path class="st0" d="M76.1,54.3c-0.1,0.2-0.3,0.3-0.5,0.3h-9.1c-0.5,0-1-0.4-1.2-0.9l-1.1-2.8c-0.1-0.2,0-1.8,0-1.8
				c0.1-0.2,0.3-0.3,0.5-0.3h9.1c0.5,0,1,0.4,1.2,0.9l1.1,2.8C76.2,52.8,76.1,54.3,76.1,54.3z"/>
		</g>
	</g>
	<path class="st0" d="M71,50.5h-2.6c-0.3,0-0.5-0.2-0.5-0.6l-1.3-16.5c-0.1-0.3,0.1-0.6,0.4-0.6h2.6c0.2,0,0.4,0.3,0.4,0.6L71.4,50
		C71.4,50.3,71.3,50.5,71,50.5z"/>
	<path class="st1" d="M71.4,50.5h-2.6c-0.3,0-0.5-0.2-0.5-0.6L67,33.4c0-0.3,0.2-0.6,0.4-0.6H70c0.3,0,0.5,0.2,0.5,0.6L71.9,50
		C71.9,50.3,71.7,50.5,71.4,50.5z"/>
	<path class="st1" d="M58.7,39.1l9.8-4.9c0.2-0.1,0.4-0.4,0.4-0.7v-1.9c0-0.2-0.2-0.3-0.4-0.2l-9.8,4.9c-0.3,0.1-0.5,0.4-0.5,0.6
		v1.9C58.2,39.1,58.4,39.2,58.7,39.1z"/>
	<path class="st1" d="M60.2,36.9c1.3,1.2,1.7,3.2,1.1,4.9c-0.6,1.7-2.1,2.8-3.6,3.1c-0.3,0-0.5-0.2-0.3-0.5l1.9-3l-1.4-2.7l-3-0.1
		l-1.9,3c-0.2,0.2-0.5,0.2-0.6-0.1c-0.4-1.2-0.2-2.6,0.5-3.8C54.5,35.3,58,34.7,60.2,36.9z"/>
	<g>
		<path class="st0" d="M61.3,41.8c-0.6,1.7-2.1,2.8-3.6,3.1h-0.5c-0.2-0.1-0.4-0.3-0.2-0.5l1.9-3l-1.4-2.6l-2.6-0.1l-1.9,3
			c0,0.1-0.1,0.1-0.2,0.1h-0.5c-0.1,0-0.2-0.1-0.3-0.2c-0.4-1.2-0.2-2.6,0.5-3.8c0.9-1.5,2.6-2.3,4.2-2.2c1.2,0,2.5,0.4,3.5,1.4
			C61.5,38.1,61.9,40.1,61.3,41.8z"/>
	</g>
</g>
<g>
	<path class="st1" d="M24.6,4.7c1.6,0,2.9,1.3,2.9,2.9c0,1.6-1.3,2.9-2.9,2.9c-0.6,0-1.1-0.2-1.6-0.5l-0.5-0.3l-0.5,0.3l-4.7,2.5
		l-0.9,0.5l0.5,0.9c1.1,1.9,1.3,4.3,0.5,6.4c-0.8,2.2-2.6,4-4.9,4.8l3-4.6l0.3-0.5l-0.3-0.5l-2.6-5l-0.3-0.5l-0.6,0l-5.5-0.2l-0.6,0
		l-0.3,0.5l-3,4.8c-0.3-1.7,0-3.6,1-5.4c1.5-2.2,4-3.5,6.6-3.5c1.2,0,2.5,0.3,3.5,0.9l0.5,0.3l0.5-0.3l6.5-3.6l0.4-0.2l0.1-0.4
		C22.2,5.5,23.3,4.7,24.6,4.7 M24.6,3.7c-1.8,0-3.2,1.2-3.7,2.8L14.3,10c-1.3-0.7-2.6-1-4-1c-2.9,0-5.7,1.4-7.4,4
		c-1.3,2.2-1.7,4.8-0.9,7c0.1,0.3,0.3,0.4,0.5,0.4c0.2,0,0.4-0.1,0.6-0.3l3.5-5.5l5.5,0.2l2.6,5l-3.5,5.5c-0.4,0.6,0,0.9,0.6,0.9
		c2.8-0.5,5.5-2.6,6.6-5.7c0.9-2.4,0.6-5.1-0.6-7.3l4.7-2.5c0.6,0.4,1.4,0.7,2.1,0.7c2.1,0,3.9-1.7,3.9-3.9
		C28.4,5.4,26.7,3.7,24.6,3.7L24.6,3.7z"/>
</g>
</svg>
