<?xml version="1.0" encoding="utf-8"?>
<!-- Generator: Adobe Illustrator 26.2.1, SVG Export Plug-In . SVG Version: 6.00 Build 0)  -->
<svg version="1.1" baseProfile="basic" id="Layer_1"
	 xmlns="http://www.w3.org/2000/svg" xmlns:xlink="http://www.w3.org/1999/xlink" x="0px" y="0px" viewBox="0 0 30 30"
	 xml:space="preserve">
<style type="text/css">
	.st0{fill:#FFFFFF;}
</style>
<g id="XMLID_10520_">
	<path id="XMLID_10521_" class="st0" d="M4.9,15.7C4.4,15.8,4,16.2,4,16.8c0,0.2,0.1,0.5,0.2,0.7l-0.5,2.8c0,0.1,0,0.2,0.1,0.3
		c0.1,0.1,0.2,0.1,0.3,0.1h1.9c0.1,0,0.2-0.1,0.3-0.1c0.1-0.1,0.1-0.2,0.1-0.3l-0.4-2.9c0.1-0.2,0.2-0.4,0.2-0.6
		c0-0.4-0.2-0.8-0.5-1v-1.5l2.5,1.1v6.3c0,0.8,0.6,1.4,1.4,1.4h11.6c0.8,0,1.4-0.6,1.4-1.4V15l6-2.6c0.2-0.1,0.3-0.2,0.2-0.4
		c0-0.2-0.1-0.3-0.3-0.4L14.9,6.9c-0.1,0-0.2,0-0.3,0C9.9,8.7,2.2,11.6,1.5,11.6c-0.2,0-0.4,0.1-0.4,0.3c0,0.2,0.1,0.4,0.2,0.5
		l3.6,1.6V15.7z M4.6,19.9l0.4-2.5c0-0.1,0-0.3-0.1-0.4c-0.1-0.1-0.1-0.1-0.1-0.2c0-0.2,0.1-0.3,0.3-0.3c0.2,0,0.3,0.1,0.3,0.3
		c0,0.1,0,0.2-0.1,0.2c-0.1,0.1-0.1,0.2-0.1,0.3l0.4,2.6H4.6z M21.8,21.7c0,0.3-0.3,0.6-0.6,0.6H9.7c-0.3,0-0.6-0.3-0.6-0.6v-5.9
		l5.8,2.5c0.1,0,0.1,0,0.2,0c0.1,0,0.1,0,0.2,0l6.7-2.9V21.7z M2.7,12.1c3-0.9,10.1-3.6,12.1-4.4l12.6,4.3L15,17.4l-8.2-3.6l6.9-0.9
		c0.3,0.2,0.8,0.3,1.3,0.3c1,0,1.7-0.4,1.7-0.9c0-0.5-0.7-0.9-1.7-0.9c-0.8,0-1.5,0.3-1.6,0.7l-8,1.1L2.7,12.1z M13.7,12.4
		c0-0.2,0.5-0.5,1.3-0.5c0.8,0,1.3,0.3,1.3,0.5s-0.5,0.5-1.3,0.5C14.2,12.9,13.7,12.6,13.7,12.4z"/>
</g>
</svg>
