<?xml version="1.0" encoding="utf-8"?>
<!-- Generator: Adobe Illustrator 26.2.1, SVG Export Plug-In . SVG Version: 6.00 Build 0)  -->
<svg version="1.1" baseProfile="basic" id="Layer_1"
	 xmlns="http://www.w3.org/2000/svg" xmlns:xlink="http://www.w3.org/1999/xlink" x="0px" y="0px" viewBox="0 0 30 30"
	 xml:space="preserve">
<style type="text/css">
	.st0{fill:#FFFFFF;}
</style>
<g>
	<path class="st0" d="M15,11.9c-1.8,0-3.2-1.5-3.2-3.2V7c0-1.8,1.5-3.2,3.2-3.2c1.7,0,3.1,1.3,3.2,3h1.1c-0.1-2.3-2-4.1-4.3-4.1
		c-2.4,0-4.4,2-4.4,4.4v1.6c0,2.4,2,4.4,4.4,4.4c2.3,0,4.2-1.8,4.3-4.1h-1.1C18.1,10.5,16.7,11.9,15,11.9z"/>
	<path class="st0" d="M17.9,13.6h-5.7c-3.4,0-6.1,2.8-6.1,6.1v7c0,0.3,0.2,0.6,0.6,0.6s0.6-0.2,0.6-0.6v-7c0-2.8,2.3-5,5-5h5.7
		c2.8,0,5,2.3,5,5v7c0,0.3,0.2,0.6,0.6,0.6c0.3,0,0.6-0.2,0.6-0.6v-7C24,16.4,21.2,13.6,17.9,13.6z"/>
	<path class="st0" d="M20.1,20.1c-0.3,0-0.6,0.2-0.6,0.6v6.1c0,0.3,0.2,0.6,0.6,0.6s0.6-0.2,0.6-0.6v-6.1
		C20.7,20.3,20.4,20.1,20.1,20.1z"/>
	<path class="st0" d="M9.9,20.1c-0.3,0-0.6,0.2-0.6,0.6v6.1c0,0.3,0.2,0.6,0.6,0.6c0.3,0,0.6-0.2,0.6-0.6v-6.1
		C10.5,20.3,10.2,20.1,9.9,20.1z"/>
</g>
<polygon class="st0" points="28.2,7 28.2,8.6 23.9,8.6 23.9,13 22.3,13 22.3,8.6 17.9,8.6 17.9,7 22.3,7 22.3,2.7 23.9,2.7 23.9,7 
	"/>
</svg>
