<?xml version="1.0" encoding="utf-8"?>
<!-- Generator: Adobe Illustrator 26.2.1, SVG Export Plug-In . SVG Version: 6.00 Build 0)  -->
<svg version="1.1" baseProfile="basic" id="Layer_1"
	 xmlns="http://www.w3.org/2000/svg" xmlns:xlink="http://www.w3.org/1999/xlink" x="0px" y="0px" viewBox="0 0 30 30"
	 xml:space="preserve">
<style type="text/css">
	.st0{fill:#FFFFFF;}
</style>
<g id="icon_settings_19_">
	<g>
		<g>
			<g>
				<path class="st0" d="M26.6,12.4h-2.8L23,10.7l1.9-1.9c0.1-0.1,0.2-0.3,0.2-0.5c0-0.2-0.1-0.4-0.2-0.5l-2.7-2.7
					c-0.3-0.3-0.6-0.3-0.9,0L19.4,7l-1.8-0.8V3.5c0-0.4-0.3-0.6-0.6-0.6h-1.9h-1.8c-0.4,0-0.6,0.3-0.6,0.6v2.7L10.8,7L8.9,5.2
					C8.6,4.9,8.3,4.9,8,5.2L5.3,7.9C5.2,8,5.1,8.2,5.1,8.4s0.1,0.4,0.2,0.5l1.9,1.9l-0.8,1.6H3.6c-0.4,0-0.6,0.3-0.6,0.6v3.8
					c0,0.4,0.3,0.6,0.6,0.6h2.7L7,19.3l-2,2c-0.1,0.1-0.2,0.3-0.2,0.5s0.1,0.4,0.2,0.5L7.8,25c0.3,0.3,0.6,0.3,0.9,0l1.9-1.9
					l1.6,0.6v2.8c0,0.4,0.3,0.6,0.6,0.6H15h2.1c0.4,0,0.6-0.3,0.6-0.6v-2.8l1.6-0.6l1.9,1.9c0.3,0.3,0.6,0.3,0.9,0l2.8-2.8
					c0.3-0.3,0.3-0.6,0-0.9l-2-2l0.7-1.8h2.7c0.4,0,0.6-0.3,0.6-0.6V13C27.2,12.7,26.9,12.4,26.6,12.4z M25.9,16.3h-2.5
					c-0.3,0-0.5,0.2-0.6,0.4l-1,2.6c-0.1,0.3,0,0.5,0.2,0.7l1.8,1.8l-2,1.9L20,22c-0.2-0.2-0.5-0.3-0.7-0.2l-2.4,0.9
					c-0.3,0.1-0.5,0.4-0.5,0.6V26H15h-1.4v-2.6c0-0.3-0.2-0.5-0.5-0.6l-2.4-0.9c-0.3-0.1-0.5,0-0.7,0.2l-1.7,1.7l-1.9-1.9L8.2,20
					c0.2-0.2,0.3-0.5,0.2-0.7l-1.1-2.6c-0.1-0.3-0.4-0.4-0.6-0.4H4.2v-2.5h2.6c0.3,0,0.5-0.2,0.5-0.4l1.1-2.5
					c0.1-0.3,0.1-0.5-0.1-0.7L6.6,8.4l1.8-1.8l1.7,1.7c0.2,0.2,0.5,0.2,0.7,0.1l2.6-1.1c0.3-0.1,0.4-0.4,0.4-0.6V4.2h1.2h1.3v2.5
					c0,0.3,0.2,0.5,0.4,0.6l2.6,1.1c0.3,0.1,0.5,0.1,0.7-0.2l1.7-1.7l1.8,1.8l-1.8,1.7c-0.2,0.2-0.3,0.5-0.1,0.7l1.1,2.5
					c0.1,0.3,0.4,0.4,0.5,0.4h2.6V16.3z"/>
			</g>
		</g>
	</g>
	<g>
		<g>
			<g>
				<path class="st0" d="M15.1,10.8c-2.4,0-4.3,1.9-4.3,4.3s1.9,4.3,4.3,4.3s4.3-1.9,4.3-4.3C19.2,12.7,17.4,10.8,15.1,10.8z
					 M15.1,18c-1.6,0-2.9-1.4-2.9-2.9s1.4-2.9,2.9-2.9c1.6,0,2.9,1.4,2.9,2.9S16.7,18,15.1,18z"/>
			</g>
		</g>
	</g>
</g>
</svg>
