<?xml version="1.0" encoding="utf-8"?>
<!-- Generator: Adobe Illustrator 26.2.1, SVG Export Plug-In . SVG Version: 6.00 Build 0)  -->
<svg version="1.1" baseProfile="basic" id="Layer_1"
	 xmlns="http://www.w3.org/2000/svg" xmlns:xlink="http://www.w3.org/1999/xlink" x="0px" y="0px" viewBox="0 0 30 30"
	 xml:space="preserve">
<style type="text/css">
	.st0{fill:#FFFFFF;}
</style>
<g id="icon_doc_22_">
	<g>
		<g>
			<g>
				<path class="st0" d="M27.3,1.9H2.7c-0.3,0-0.6,0.3-0.6,0.6v25c0,0.3,0.3,0.6,0.6,0.6h24.6c0.3,0,0.6-0.3,0.6-0.6v-25
					C27.9,2.2,27.6,1.9,27.3,1.9z M26.7,26.9H3.3V3.1h23.4V26.9z"/>
			</g>
		</g>
	</g>
	<g>
		<g>
			<g>
				<path class="st0" d="M7.5,8.3h15.1c0.3,0,0.6-0.3,0.6-0.6S23,7.1,22.6,7.1H7.5c-0.3,0-0.6,0.3-0.6,0.6S7.2,8.3,7.5,8.3z"/>
			</g>
		</g>
	</g>
	<g>
		<g>
			<g>
				<path class="st0" d="M7.5,12h15.1c0.3,0,0.6-0.3,0.6-0.6s-0.3-0.6-0.6-0.6H7.5c-0.3,0-0.6,0.3-0.6,0.6S7.2,12,7.5,12z"/>
			</g>
		</g>
	</g>
	<g>
		<g>
			<g>
				<path class="st0" d="M7.5,15.6h15.1c0.3,0,0.6-0.3,0.6-0.6s-0.3-0.6-0.6-0.6H7.5c-0.3,0-0.6,0.3-0.6,0.6S7.2,15.6,7.5,15.6z"/>
			</g>
		</g>
	</g>
</g>
</svg>
