<?xml version="1.0" encoding="utf-8"?>
<!-- Generator: Adobe Illustrator 26.2.1, SVG Export Plug-In . SVG Version: 6.00 Build 0)  -->
<svg version="1.1" baseProfile="basic" id="Layer_1"
	 xmlns="http://www.w3.org/2000/svg" xmlns:xlink="http://www.w3.org/1999/xlink" x="0px" y="0px" viewBox="0 0 30 30"
	 xml:space="preserve">
<style type="text/css">
	.st0{fill:#FFFFFF;}
</style>
<g>
	<path class="st0" d="M25.7,14.6l-0.1,13.9c0,0.2-0.2,0.4-0.4,0.4h-6V17.8h-8.3v11.1H4.7c-0.2,0-0.4-0.2-0.4-0.4l0-13.9L15,4.7
		L25.7,14.6z"/>
	<path class="st0" d="M2.2,14.3L2.2,14.3c-0.4-0.4-0.4-1,0.1-1.4L15,1.1l12.7,11.8c0.4,0.4,0.4,1,0.1,1.4l0,0
		c-0.4,0.4-1,0.4-1.4,0.1L15,3.8L3.6,14.4C3.2,14.8,2.6,14.7,2.2,14.3z"/>
</g>
</svg>
