<?xml version="1.0" encoding="utf-8"?>
<!-- Generator: Adobe Illustrator 26.2.1, SVG Export Plug-In . SVG Version: 6.00 Build 0)  -->
<svg version="1.1" baseProfile="basic" id="Layer_1"
	 xmlns="http://www.w3.org/2000/svg" xmlns:xlink="http://www.w3.org/1999/xlink" x="0px" y="0px" viewBox="0 0 30 30"
	 xml:space="preserve">
<style type="text/css">
	.st0{fill:#FFFFFF;}
</style>
<g>
	<path class="st0" d="M16.1,4c-0.4-0.2-0.9-0.3-1.4-0.2c-0.5,0.1-0.9,0.4-1.1,0.9c-0.2,0.4-0.3,0.9-0.2,1.4c0.1,0.5,0.4,0.9,0.9,1.1
		c0.3,0.2,0.6,0.2,0.9,0.2c0.2,0,0.3,0,0.5-0.1c0.5-0.1,0.9-0.4,1.1-0.9C17,6.1,17.1,5.6,17,5.2C16.8,4.7,16.5,4.3,16.1,4z
		 M16.2,6.2C16.2,6.2,16.2,6.2,16.2,6.2c-0.2,0.3-0.4,0.5-0.7,0.5c-0.3,0.1-0.6,0-0.9-0.1c-0.5-0.3-0.7-1-0.4-1.6
		c0.2-0.3,0.4-0.5,0.7-0.5c0.1,0,0.2,0,0.3,0c0.2,0,0.4,0.1,0.6,0.2C16,4.8,16.2,5,16.3,5.3C16.4,5.6,16.3,5.9,16.2,6.2z"/>
	<path class="st0" d="M21.8,6.7c-0.5-1.8-1.7-3.3-3.3-4.3c-3.4-1.9-7.7-0.8-9.7,2.6c-1.9,3.4-0.8,7.7,2.6,9.7
		c0.3,0.1,0.5,0.3,0.8,0.4l0,11.5c0,0.1,0.1,0.2,0.2,0.3l2.6,1.5c0,0,0,0,0,0c0,0,0,0,0,0c0,0,0,0,0.1,0c0,0,0,0,0,0c0,0,0,0,0.1,0
		c0,0,0,0,0,0c0,0,0,0,0.1,0c0,0,0,0,0,0c0,0,0,0,0.1,0c0,0,0,0,0,0c0,0,0,0,0,0c0,0,0,0,0,0c0,0,0,0,0,0c0,0,0,0,0,0l1.2-1.5
		c0.1-0.1,0.1-0.1,0.1-0.2l0-1.8l0.8-1.1c0.1-0.1,0.1-0.3,0-0.4l-0.9-1l0-0.2l0.8-1.2c0.1-0.1,0.1-0.3,0-0.4l-0.8-1.1l0-0.9l0.8-0.7
		c0.1-0.1,0.1-0.2,0.1-0.3c0-0.1-0.1-0.2-0.1-0.3l-0.8-0.6l0-1.4c1.8-0.5,3.4-1.7,4.4-3.3C22.1,10.5,22.3,8.6,21.8,6.7z M20.5,11.8
		c-0.9,1.6-2.4,2.7-4.2,3.1c-0.2,0-0.3,0.2-0.3,0.3l0,1.8c0,0.1,0.1,0.2,0.1,0.3l0.6,0.4l-0.6,0.5c-0.1,0.1-0.1,0.2-0.1,0.3l0,1.2
		c0,0.1,0,0.1,0.1,0.2l0.7,1L16,21.9c-0.1,0.1-0.1,0.2-0.1,0.3l0.1,0.4c0,0.1,0,0.1,0.1,0.1l0.7,0.8l-0.7,0.9c0,0.1-0.1,0.1-0.1,0.2
		l0,1.8l-0.6,0.7V16.6c0-0.2-0.2-0.3-0.3-0.3s-0.3,0.2-0.3,0.3v11L13,26.4l0-11.6c0-0.1-0.1-0.3-0.2-0.3c-0.3-0.1-0.6-0.3-0.9-0.4
		c-3-1.8-4.1-5.7-2.3-8.7c1.8-3,5.7-4.1,8.7-2.3c1.5,0.8,2.5,2.2,3,3.9C21.6,8.6,21.4,10.3,20.5,11.8z"/>
</g>
</svg>
