<?xml version="1.0" encoding="utf-8"?>
<!-- Generator: Adobe Illustrator 26.5.0, SVG Export Plug-In . SVG Version: 6.00 Build 0)  -->
<svg version="1.1" baseProfile="basic" id="Layer_1"
	 xmlns="http://www.w3.org/2000/svg" xmlns:xlink="http://www.w3.org/1999/xlink" x="0px" y="0px" viewBox="0 0 30 30"
	 xml:space="preserve">
<style type="text/css">
	.st0{fill:none;stroke:#FFFFFF;stroke-miterlimit:10;}
	.st1{fill:#FFFFFF;}
</style>
<g>
	<path class="st0" d="M25.8,24c-1.8,0-4.2-1.5-5.6-3.7c-0.7-1-1.8-1.7-3.1-1.7h-4.3c-1.2,0-2.4,0.6-3.1,1.7C8.3,22.6,5.9,24,4.2,24
		c-2.9,0-2.9-4-1.7-9c1.2-5,4.1-9,6.8-9c0.7,0,1.3,0.3,1.8,0.7c0.6,0.6,1.5,1.1,2.4,1.1h3.2c0.9,0,1.7-0.4,2.4-1.1
		C19.5,6.2,20.1,6,20.8,6c2.7,0,5.6,4,6.8,9C28.8,20,28.7,24,25.8,24z"/>
	<g>
		<circle class="st1" cx="11" cy="15.8" r="1.7"/>
		<circle class="st1" cx="18.9" cy="15.8" r="1.7"/>
	</g>
</g>
</svg>
