<?xml version="1.0" encoding="utf-8"?>
<!-- Generator: Adobe Illustrator 26.2.1, SVG Export Plug-In . SVG Version: 6.00 Build 0)  -->
<svg version="1.1" baseProfile="basic" id="Layer_1"
	 xmlns="http://www.w3.org/2000/svg" xmlns:xlink="http://www.w3.org/1999/xlink" x="0px" y="0px" viewBox="0 0 30 30"
	 xml:space="preserve">
<style type="text/css">
	.st0{fill:#FFFFFF;}
</style>
<g>
	<path class="st0" d="M8,25.4h10.4c-0.1,1.2-1.1,2.1-2.4,2.1H6.9c-1.1,0-2-0.9-2-2V4.4c0-1.1,0.9-2,2-2H16c1.2,0,2.2,0.9,2.4,2.1H8
		c-0.4,0-0.8,0.4-0.8,0.8v19.3C7.2,25.1,7.5,25.4,8,25.4z"/>
	<polygon class="st0" points="19.2,19.5 19.2,16.4 9.8,16.4 9.8,13.1 19.2,13.1 19.2,9.5 25.1,14.5 	"/>
</g>
</svg>
