<?xml version="1.0" encoding="utf-8"?>
<!-- Generator: Adobe Illustrator 26.2.1, SVG Export Plug-In . SVG Version: 6.00 Build 0)  -->
<svg version="1.1" baseProfile="basic" id="Layer_1"
	 xmlns="http://www.w3.org/2000/svg" xmlns:xlink="http://www.w3.org/1999/xlink" x="0px" y="0px" viewBox="0 0 30 30"
	 xml:space="preserve">
<style type="text/css">
	.st0{fill:#FFFFFF;}
</style>
<g id="XMLID_10659_">
	<path id="XMLID_10669_" class="st0" d="M28.1,17.6l-1-0.2c0-0.5-0.2-1.1-0.3-1.6l0.8-0.6c0.3-0.2,0.3-0.5,0.2-0.8l-1.5-2.2
		c-0.1-0.1-0.2-0.2-0.4-0.2c-0.1,0-0.3,0-0.4,0.1l-0.8,0.6c-0.4-0.4-0.9-0.6-1.4-0.9l0.2-1c0.1-0.3-0.1-0.6-0.5-0.7l-2.6-0.5
		c-0.2,0-0.3,0-0.4,0.1c-0.1,0.1-0.2,0.2-0.2,0.4l-0.2,1c-0.5,0-1.1,0.2-1.6,0.3l-0.6-0.8c-0.1-0.1-0.2-0.2-0.4-0.2
		c-0.2,0-0.3,0-0.4,0.1l-2.2,1.5c-0.1,0.1-0.2,0.2-0.2,0.4c0,0.2,0,0.3,0.1,0.4l0.6,0.8c-0.4,0.4-0.6,0.9-0.9,1.4l-1-0.2
		c-0.1,0-0.3,0-0.4,0.1c-0.1,0.1-0.2,0.2-0.2,0.4l-0.5,2.6c-0.1,0.3,0.1,0.6,0.5,0.7l1,0.2c0,0.5,0.2,1.1,0.3,1.6l-0.8,0.6
		c-0.1,0.1-0.2,0.2-0.2,0.4c0,0.2,0,0.3,0.1,0.4l1.5,2.2c0.1,0.1,0.2,0.2,0.4,0.2c0.1,0,0.3,0,0.4-0.1l0.8-0.6
		c0.4,0.4,0.9,0.6,1.4,0.9l-0.2,1c-0.1,0.3,0.1,0.6,0.5,0.7l2.6,0.5c0,0,0.1,0,0.1,0c0.3,0,0.5-0.2,0.6-0.5l0.2-1
		c0.5,0,1.1-0.2,1.6-0.3l0.6,0.8c0.1,0.1,0.2,0.2,0.4,0.2c0.2,0,0.3,0,0.4-0.1l2.2-1.5c0.3-0.2,0.3-0.5,0.2-0.8l-0.6-0.8
		c0.4-0.4,0.6-0.9,0.9-1.4l1,0.2c0.3,0.1,0.6-0.1,0.7-0.5l0.5-2.6c0-0.2,0-0.3-0.1-0.4C28.4,17.7,28.2,17.6,28.1,17.6z M27,20
		l-0.9-0.2c-0.3-0.1-0.5,0.1-0.6,0.3c-0.3,0.7-0.7,1.3-1.2,1.8c-0.2,0.2-0.2,0.5-0.1,0.7l0.5,0.7l-1.2,0.8l-0.5-0.7
		c-0.2-0.2-0.4-0.3-0.7-0.2c-0.7,0.3-1.4,0.4-2.1,0.4c-0.3,0-0.5,0.2-0.6,0.5l-0.2,0.9l-1.4-0.3l0.2-0.9c0.1-0.3-0.1-0.5-0.3-0.6
		c-0.7-0.3-1.3-0.7-1.8-1.2c-0.2-0.2-0.5-0.2-0.7-0.1l-0.7,0.5L14,21.4l0.7-0.5c0.2-0.2,0.3-0.4,0.2-0.7c-0.3-0.7-0.4-1.4-0.4-2.1
		c0-0.3-0.2-0.5-0.5-0.6l-0.9-0.2l0.3-1.4l0.9,0.2c0.3,0.1,0.5-0.1,0.6-0.3c0.3-0.7,0.7-1.3,1.2-1.8c0.2-0.2,0.2-0.5,0.1-0.7
		l-0.5-0.7l1.2-0.8l0.5,0.7c0.2,0.2,0.4,0.3,0.7,0.2c0.7-0.3,1.4-0.4,2.1-0.4c0.3,0,0.5-0.2,0.6-0.5l0.2-0.9l1.4,0.3l-0.2,0.9
		c-0.1,0.3,0.1,0.5,0.3,0.6c0.7,0.3,1.3,0.7,1.8,1.2c0.2,0.2,0.5,0.2,0.7,0.1l0.7-0.5l0.8,1.2l-0.7,0.5c-0.2,0.2-0.3,0.4-0.2,0.7
		c0.3,0.7,0.4,1.4,0.4,2.1c0,0.3,0.2,0.5,0.5,0.6l0.9,0.2L27,20z"/>
	<path id="XMLID_10666_" class="st0" d="M21,13.9c-1.1-0.2-2.2,0-3.1,0.6c-0.9,0.6-1.5,1.6-1.7,2.7c-0.2,1.1,0,2.2,0.6,3.1
		c0.6,0.9,1.6,1.5,2.7,1.7l0,0c0.3,0.1,0.5,0.1,0.8,0.1c2,0,3.7-1.4,4.1-3.4C24.7,16.5,23.2,14.4,21,13.9z M23.2,18.6
		c-0.1,0.8-0.6,1.5-1.3,1.9c-0.7,0.5-1.5,0.6-2.2,0.5l0,0c-0.8-0.2-1.5-0.6-1.9-1.3c-0.4-0.7-0.6-1.5-0.5-2.2
		c0.1-0.8,0.6-1.5,1.3-1.9c0.5-0.3,1.1-0.5,1.7-0.5c0.2,0,0.4,0,0.6,0.1C22.4,15.4,23.5,17,23.2,18.6z"/>
	<path id="XMLID_10663_" class="st0" d="M7,15.1l0.1,0.7c0,0.1,0.1,0.2,0.2,0.3c0.1,0.1,0.2,0.1,0.3,0.1c0,0,0,0,0.1,0l1.9-0.3
		c0.2,0,0.4-0.3,0.4-0.5l-0.1-0.7c0.4-0.2,0.7-0.4,1-0.6l0.6,0.5c0.2,0.1,0.5,0.1,0.6-0.1l1.2-1.6c0.1-0.2,0.1-0.5-0.1-0.6l-0.6-0.5
		c0.1-0.4,0.2-0.8,0.3-1.2l0.7-0.1c0.1,0,0.2-0.1,0.3-0.2C14,10.2,14,10.1,14,10l-0.3-1.9c0-0.2-0.3-0.4-0.5-0.4l-0.7,0.1
		c-0.2-0.4-0.4-0.7-0.6-1l0.5-0.6c0.1-0.1,0.1-0.2,0.1-0.3c0-0.1-0.1-0.2-0.2-0.3l-1.6-1.2c-0.1-0.1-0.2-0.1-0.3-0.1
		c-0.1,0-0.2,0.1-0.3,0.2L9.6,5.1C9.2,4.9,8.8,4.8,8.4,4.8L8.3,4c0-0.2-0.3-0.4-0.5-0.4L5.9,3.9C5.7,3.9,5.6,4,5.6,4.1
		C5.5,4.2,5.5,4.3,5.5,4.4l0.1,0.7c-0.4,0.2-0.7,0.4-1,0.6L4,5.3C3.9,5.3,3.7,5.2,3.6,5.3c-0.1,0-0.2,0.1-0.3,0.2L2.2,7
		C2.1,7.1,2.1,7.2,2.1,7.3c0,0.1,0.1,0.2,0.2,0.3L2.9,8C2.7,8.4,2.6,8.8,2.6,9.2L1.8,9.3c-0.1,0-0.2,0.1-0.3,0.2
		C1.5,9.6,1.4,9.7,1.4,9.8l0.3,1.9c0,0.2,0.3,0.4,0.5,0.4L3,12c0.2,0.4,0.4,0.7,0.6,1l-0.5,0.6C3.1,13.8,3,13.9,3,14
		c0,0.1,0.1,0.2,0.2,0.3l1.6,1.2c0.2,0.1,0.5,0.1,0.6-0.1l0.5-0.6C6.2,14.9,6.6,15,7,15.1z M5.4,14L5,14.5l-0.9-0.7l0.4-0.5
		c0.1-0.2,0.1-0.4,0-0.5c-0.4-0.4-0.6-0.9-0.8-1.4c-0.1-0.2-0.3-0.3-0.5-0.3l-0.7,0.1l-0.2-1.1L3,10c0.2,0,0.4-0.2,0.4-0.4
		c0-0.5,0.2-1.1,0.4-1.5c0.1-0.2,0-0.4-0.1-0.5L3.1,7.2l0.7-0.9l0.5,0.4c0.2,0.1,0.4,0.1,0.5,0C5.3,6.3,5.7,6,6.2,5.8
		c0.2-0.1,0.3-0.3,0.3-0.5L6.4,4.7l1.1-0.2l0.1,0.7c0,0.2,0.2,0.4,0.4,0.4C8.5,5.6,9,5.8,9.5,6c0.2,0.1,0.4,0,0.5-0.1l0.4-0.5
		L11.3,6l-0.4,0.5c-0.1,0.2-0.1,0.4,0,0.5c0.4,0.4,0.6,0.9,0.8,1.4c0.1,0.2,0.3,0.3,0.5,0.3l0.7-0.1l0.2,1.1l-0.7,0.1
		c-0.2,0-0.4,0.2-0.4,0.4c0,0.5-0.2,1.1-0.4,1.5c-0.1,0.2,0,0.4,0.1,0.5l0.5,0.4l-0.7,0.9l-0.5-0.4c-0.2-0.1-0.4-0.1-0.5,0
		c-0.4,0.4-0.9,0.6-1.4,0.8C9,14,8.9,14.2,8.9,14.4L9,15.1l-1.1,0.2l-0.1-0.7c0-0.2-0.2-0.4-0.4-0.4c-0.5,0-1.1-0.2-1.5-0.4
		c-0.1,0-0.1,0-0.2,0C5.6,13.8,5.4,13.9,5.4,14z"/>
	<path id="XMLID_10660_" class="st0" d="M8.2,13c1.7-0.2,2.9-1.8,2.6-3.5C10.6,7.8,9,6.6,7.3,6.8c-1.7,0.2-2.9,1.8-2.6,3.5
		C4.8,11.9,6.2,13,7.7,13C7.9,13,8,13,8.2,13z M5.5,10.2C5.3,9,6.2,7.9,7.4,7.7c0.1,0,0.2,0,0.3,0c1.1,0,2.1,0.8,2.2,1.9
		c0.2,1.2-0.7,2.4-1.9,2.6C6.8,12.3,5.7,11.5,5.5,10.2z"/>
</g>
</svg>
