<?xml version="1.0" encoding="utf-8"?>
<!-- Generator: Adobe Illustrator 26.5.0, SVG Export Plug-In . SVG Version: 6.00 Build 0)  -->
<svg version="1.1" baseProfile="basic" id="Layer_1"
	 xmlns="http://www.w3.org/2000/svg" xmlns:xlink="http://www.w3.org/1999/xlink" x="0px" y="0px" viewBox="0 0 30 30"
	 xml:space="preserve">
<style type="text/css">
	.st0{fill:#FFFFFF;}
</style>
<g>
	<path class="st0" d="M22.7,3.1c0.1,0,0.3,0,0.4,0.2l3.6,3.6c0.2,0.2,0.2,0.6,0,0.8l-1.8,1.8l-4.4-4.4l1.8-1.8
		C22.4,3.2,22.6,3.1,22.7,3.1 M22.7,2.1c-0.4,0-0.8,0.1-1.1,0.4l-2.5,2.5l5.8,5.8l2.5-2.5c0.6-0.6,0.6-1.6,0-2.2l-3.6-3.6
		C23.5,2.3,23.1,2.1,22.7,2.1L22.7,2.1z"/>
	<path class="st0" d="M17.3,8.3l4.4,4.4l-9,9c-0.8,0.8-1.3,2-1.3,3.1v0.1l0,0.1c0.1,0.6,0,1.1-0.1,1.2C11,26.4,9.6,26.9,6,26.9
		c-1.1,0-2-0.1-2-0.1l-0.1,0l-0.1,0c0,0,0,0-0.1,0c-0.2,0-0.4-0.1-0.5-0.2c-0.1-0.1-0.1-0.2-0.1-0.3l0-0.1l0-0.1
		c-0.2-2.9,0-6.5,0.7-7.3c0.3-0.1,1-0.2,1.4-0.2l0.1,0c1,0,2-0.4,3-1.2l0,0l0,0L17.3,8.3 M17.3,6.9l-9.6,9.6c-0.7,0.6-1.5,1-2.4,1
		c-0.8,0.1-1.8,0.2-2.1,0.5c-1.4,1.5-1,8.1-1,8.1C2,27,2.8,27.8,3.7,27.8c0.1,0,0.1,0,0.2,0c0,0,0.9,0.1,2.1,0.1
		c2.1,0,5.1-0.2,6-1.1c0.4-0.4,0.5-1.3,0.4-2c0-0.9,0.4-1.8,1-2.4l9.7-9.7L17.3,6.9L17.3,6.9z"/>
</g>
</svg>
