<?xml version="1.0" encoding="utf-8"?>
<!-- Generator: Adobe Illustrator 27.0.1, SVG Export Plug-In . SVG Version: 6.00 Build 0)  -->
<svg version="1.1" id="Layer_1" xmlns="http://www.w3.org/2000/svg" xmlns:xlink="http://www.w3.org/1999/xlink" x="0px" y="0px"
	 viewBox="0 0 30 30" style="enable-background:new 0 0 30 30;" xml:space="preserve">
<style type="text/css">
	.st0{fill:#F30564;}
</style>
<g>
	<g>
		<path class="st0" d="M23.7,4.22v-0.9c0-0.55-0.44-0.99-0.99-0.99H2.6c-0.55,0-0.99,0.44-0.99,0.99V26.7
			c0,0.55,0.44,0.99,0.99,0.99h20.11c0.55,0,0.99-0.44,0.99-0.99V14.86c0-0.97-1.25-1.36-1.8-0.56l-0.02,0.03
			c-0.11,0.16-0.17,0.36-0.17,0.56v9.8c0,0.55-0.44,0.99-0.99,0.99H4.6c-0.55,0-0.99-0.44-0.99-0.99V5.33
			c0-0.55,0.44-0.99,0.99-0.99h16.11c0.55,0,0.99,0.44,0.99,0.99v2.31c0.59-0.91,1.26-1.95,1.85-2.89
			C23.65,4.59,23.7,4.41,23.7,4.22z"/>
	</g>
	<path class="st0" d="M27.96,3.28l-1.18-0.8c-0.22-0.15-0.48-0.2-0.74-0.15c-0.26,0.05-0.49,0.2-0.65,0.44
		c-0.91,1.45-3.49,5.51-4.48,7c-0.85,1.28-3.3,4.83-3.83,5.61l-0.8,0.16c-0.63,0.14-1.05,0.76-0.94,1.39l0.15,0.85
		c0,0.04,0,0.08,0.01,0.11l-0.05,0.99c-0.02,0.37,0.12,0.68,0.39,0.86c0.14,0.1,0.31,0.15,0.49,0.15c0.15,0,0.3-0.03,0.45-0.1
		l0.93-0.42l0.93-0.19c0.63-0.14,1.05-0.76,0.94-1.39l-0.13-0.81c0.54-0.79,2.94-4.35,3.83-5.6c1.17-1.66,4.52-6.2,4.9-6.71
		c0.16-0.21,0.22-0.48,0.18-0.74C28.33,3.67,28.18,3.43,27.96,3.28z M16,17.8L16,17.8L16,17.8L16,17.8z"/>
</g>
</svg>
