<?xml version="1.0" encoding="utf-8"?>
<!-- Generator: Adobe Illustrator 26.2.1, SVG Export Plug-In . SVG Version: 6.00 Build 0)  -->
<svg version="1.1" baseProfile="basic" id="Layer_1"
	 xmlns="http://www.w3.org/2000/svg" xmlns:xlink="http://www.w3.org/1999/xlink" x="0px" y="0px" viewBox="0 0 30 30"
	 xml:space="preserve">
<style type="text/css">
	.st0{fill:#FFFFFF;}
</style>
<g>
	<path class="st0" d="M23.7,7.5C23.7,7.5,23.7,7.5,23.7,7.5C23.7,7.4,23.7,7.4,23.7,7.5c0-0.1,0-0.1,0-0.1c0,0,0,0,0,0c0,0,0,0,0,0
		c0,0,0,0,0,0c0,0,0,0,0,0l-4.4-4.4c0,0,0,0,0,0c0,0,0,0,0,0c0,0,0,0,0,0c0,0,0,0,0,0c0,0,0,0-0.1,0c0,0,0,0,0,0c0,0,0,0-0.1,0
		c0,0,0,0,0,0H5.8c-0.2,0-0.3,0.2-0.3,0.3v24.2c0,0.2,0.2,0.3,0.3,0.3h17.5c0.2,0,0.3-0.2,0.3-0.3L23.7,7.5
		C23.7,7.5,23.7,7.5,23.7,7.5z M19.3,3.9l3.2,3.2h-3.2V3.9z M6.2,26.9V3.5h12.4v4.1c0,0.2,0.2,0.3,0.3,0.3H23v19.1H6.2z"/>
	<path class="st0" d="M21.2,19c0-0.1-0.1-0.2-0.1-0.4c0-0.3-0.1-0.6-0.3-0.9c-0.2-0.2-0.6-0.3-0.9-0.3c-0.1,0-0.3,0-0.4-0.1
		c-0.1,0-0.2-0.1-0.3-0.2c-0.2-0.2-0.5-0.4-0.9-0.4s-0.7,0.2-0.9,0.4c-0.1,0.1-0.2,0.2-0.3,0.2c-0.1,0-0.2,0.1-0.4,0.1
		c-0.3,0-0.6,0.1-0.9,0.3c-0.2,0.2-0.3,0.6-0.3,0.9c0,0.1,0,0.3-0.1,0.4c0,0.1-0.1,0.2-0.2,0.3c-0.2,0.2-0.4,0.5-0.4,0.9
		s0.2,0.7,0.4,0.9c0.1,0.1,0.2,0.2,0.2,0.3c0,0.1,0.1,0.2,0.1,0.4c0,0.3,0.1,0.6,0.3,0.9c0.2,0.2,0.3,0.2,0.5,0.3v2.8
		c0,0.1,0.1,0.2,0.2,0.3c0.1,0.1,0.2,0.1,0.3,0l1.5-0.9l1.4,0.8c0.1,0,0.1,0.1,0.2,0.1c0.1,0,0.1,0,0.2,0c0.1-0.1,0.2-0.2,0.2-0.3
		v-2.8c0.2,0,0.4-0.1,0.5-0.3c0.2-0.2,0.3-0.6,0.3-0.9c0-0.1,0-0.3,0.1-0.4c0-0.1,0.1-0.2,0.2-0.3c0.2-0.2,0.4-0.5,0.4-0.9
		s-0.2-0.7-0.4-0.9C21.3,19.2,21.2,19.1,21.2,19z M18.5,24.4c-0.1-0.1-0.2-0.1-0.4,0L17,25.1v-2c0,0,0,0,0,0c0.1,0,0.2,0.1,0.3,0.2
		c0.2,0.2,0.5,0.4,0.9,0.4s0.7-0.2,0.9-0.4c0.1-0.1,0.2-0.2,0.3-0.2c0,0,0,0,0.1,0v2L18.5,24.4z M20.8,20.6
		c-0.1,0.1-0.2,0.3-0.3,0.5c-0.1,0.2-0.1,0.4-0.1,0.5c0,0.2-0.1,0.4-0.2,0.5c-0.1,0.1-0.3,0.1-0.5,0.2c-0.2,0-0.4,0.1-0.5,0.1
		c-0.2,0.1-0.3,0.2-0.5,0.3c-0.2,0.1-0.3,0.2-0.5,0.2c-0.1,0-0.3-0.1-0.5-0.2c-0.1-0.1-0.3-0.2-0.5-0.3c-0.2-0.1-0.4-0.1-0.5-0.1
		c-0.2,0-0.4-0.1-0.5-0.2c-0.1-0.1-0.1-0.3-0.2-0.5c0-0.2-0.1-0.4-0.1-0.5c-0.1-0.2-0.2-0.3-0.3-0.5c-0.1-0.2-0.2-0.3-0.2-0.5
		c0-0.1,0.1-0.3,0.2-0.5c0.1-0.1,0.2-0.3,0.3-0.5c0.1-0.2,0.1-0.4,0.1-0.5c0-0.2,0.1-0.4,0.2-0.5c0.1-0.1,0.3-0.1,0.5-0.2
		c0.2,0,0.4-0.1,0.5-0.1c0.2-0.1,0.3-0.2,0.5-0.3c0.2-0.1,0.3-0.2,0.5-0.2c0.1,0,0.3,0.1,0.5,0.2c0.1,0.1,0.3,0.2,0.5,0.3
		c0.2,0.1,0.4,0.1,0.5,0.1c0.2,0,0.4,0.1,0.5,0.2c0.1,0.1,0.1,0.3,0.2,0.5c0,0.2,0.1,0.4,0.1,0.5c0.1,0.2,0.2,0.3,0.3,0.5
		c0.1,0.2,0.2,0.3,0.2,0.5C21.1,20.3,21,20.5,20.8,20.6z"/>
	<path class="st0" d="M9.1,7.9h6.8c0.2,0,0.3-0.2,0.3-0.3s-0.2-0.3-0.3-0.3H9.1c-0.2,0-0.3,0.2-0.3,0.3S8.9,7.9,9.1,7.9z"/>
	<path class="st0" d="M9.1,10.6h11c0.2,0,0.3-0.2,0.3-0.3c0-0.2-0.2-0.3-0.3-0.3h-11c-0.2,0-0.3,0.2-0.3,0.3
		C8.8,10.4,8.9,10.6,9.1,10.6z"/>
	<path class="st0" d="M9.1,13.3h11c0.2,0,0.3-0.2,0.3-0.3c0-0.2-0.2-0.3-0.3-0.3h-11c-0.2,0-0.3,0.2-0.3,0.3
		C8.8,13.2,8.9,13.3,9.1,13.3z"/>
	<path class="st0" d="M20.5,15.7c0-0.2-0.2-0.3-0.3-0.3h-11c-0.2,0-0.3,0.2-0.3,0.3S8.9,16,9.1,16h11C20.4,16,20.5,15.9,20.5,15.7z"
		/>
</g>
</svg>
